<svg xmlns="http://www.w3.org/2000/svg" xmlns:xlink="http://www.w3.org/1999/xlink" width="56" height="56" id="screenshot-8211c007-6354-8069-8006-f685bf77a1ed" viewBox="0 0 56 56" fill="none"><g id="shape-8211c007-6354-8069-8006-f685bf77a1ed" width="800" height="800" rx="0" ry="0" style="fill: rgb(0, 0, 0);"><g id="shape-8211c007-6354-8069-8006-f685bf77a1ee" style="display: none;"><g class="fills" id="fills-8211c007-6354-8069-8006-f685bf77a1ee"><rect width="56" height="56" x="0" transform="matrix(1.000000, 0.000000, 0.000000, 1.000000, 0.000000, 0.000000)" style="fill: none;" ry="0" fill="none" rx="0" y="0"></rect></g></g><g id="shape-8211c007-6354-8069-8006-f685bf77a1ef"><g class="fills" id="fills-8211c007-6354-8069-8006-f685bf77a1ef"><path d="M22.75,0L33.25,0L35.32861328125,8.314208984375C37.54638671875,9.140625,39.58740234375,10.330810546875,41.3779296875,11.8125L49.623779296875,9.453125L54.873779296875,18.546875L48.710693359375,24.505859375C48.90087890625,25.642578125,49,26.8095703125,49,28C49,29.1904296875,48.90087890625,30.357421875,48.710693359375,31.494140625L54.873779296875,37.453125L49.623779296875,46.546875L41.3779296875,44.1875C39.58740234375,45.669189453125,37.54638671875,46.859375,35.32861328125,47.685791015625L33.25,56L22.75,56L20.67138671875,47.685791015625C18.45361328125,46.859375,16.41259765625,45.669189453125,14.6220703125,44.1875L6.376220703125,46.546875L1.126220703125,37.453125L7.289306640625,31.494140625C7.09912109375,30.357421875,7,29.1904296875,7,28C7,26.8095703125,7.09912109375,25.642578125,7.289306640625,24.505859375L1.126220703125,18.546875L6.376220703125,9.453125L14.6220703125,11.8125C16.41259765625,10.330810546875,18.45361328125,9.140625,20.67138671875,8.314208984375L22.75,0ZM28,35C31.8662109375,35,35,31.86572265625,35,28C35,24.13427734375,31.8662109375,21,28,21C24.1337890625,21,21,24.13427734375,21,28C21,31.86572265625,24.1337890625,35,28,35Z" fill-rule="evenodd" clip-rule="evenodd" style="fill: rgb(204, 164, 61);"></path></g></g></g></svg>