<svg xmlns="http://www.w3.org/2000/svg" xmlns:xlink="http://www.w3.org/1999/xlink" width="46.118" height="56" id="screenshot-8211c007-6354-8069-8006-f685bf77a1e7" viewBox="0 0 46.118 56" fill="none"><g id="shape-8211c007-6354-8069-8006-f685bf77a1e7" width="800" height="800" rx="0" ry="0" style="fill: rgb(0, 0, 0);"><g id="shape-8211c007-6354-8069-8006-f685bf77a1e8"><g class="fills" id="fills-8211c007-6354-8069-8006-f685bf77a1e8"><path d="M42.823486328125,52.7060546875L3.294189453125,52.7060546875L3.294189453125,3.2939453125L29.64697265625,3.2939453125L29.64697265625,16.470703125L42.823486328125,16.470703125L42.823486328125,52.7060546875ZM32.941162109375,3.97607421875L42.1416015625,13.17626953125L32.941162109375,13.17626953125L32.941162109375,3.97607421875ZM44.671630859375,11.04833984375L35.069091796875,1.4462890625C34.133544921875,0.51416015625,32.891845703125,0,31.57421875,0L0,0L0,56L46.11767578125,56L46.11767578125,14.54345703125C46.11767578125,13.22607421875,45.603759765625,11.98388671875,44.671630859375,11.04833984375ZM9.88232421875,36.2353515625L32.941162109375,36.2353515625L32.941162109375,32.94140625L9.88232421875,32.94140625L9.88232421875,36.2353515625ZM9.88232421875,23.05859375L36.2353515625,23.05859375L36.2353515625,19.7646484375L9.88232421875,19.7646484375L9.88232421875,23.05859375ZM9.88232421875,42.82373046875L23.058837890625,42.82373046875L23.058837890625,39.529296875L9.88232421875,39.529296875L9.88232421875,42.82373046875ZM9.88232421875,29.64697265625L29.64697265625,29.64697265625L29.64697265625,26.35302734375L9.88232421875,26.35302734375L9.88232421875,29.64697265625ZM9.88232421875,16.470703125L23.058837890625,16.470703125L23.058837890625,13.17626953125L9.88232421875,13.17626953125L9.88232421875,16.470703125Z" fill-rule="evenodd" style="fill: rgb(204, 164, 61); fill-opacity: 1;"></path></g></g></g></svg>