<svg xmlns="http://www.w3.org/2000/svg" xmlns:xlink="http://www.w3.org/1999/xlink" width="58" height="58" id="screenshot-8211c007-6354-8069-8006-f685bf77a1f4" viewBox="0 0 58 58" fill="none"><g id="shape-8211c007-6354-8069-8006-f685bf77a1f4" width="800" height="800" class="cf-icon-svg" rx="0" ry="0" style="fill: rgb(0, 0, 0);"><g id="shape-8211c007-6354-8069-8006-f685bf77a1f5" style="display: none;"><g class="fills" id="fills-8211c007-6354-8069-8006-f685bf77a1f5"><rect width="58" height="58" x="0" transform="matrix(1.000000, 0.000000, 0.000000, 1.000000, 0.000000, 0.000000)" style="fill: rgb(204, 164, 61); fill-opacity: 1;" ry="0" fill="none" rx="0" y="0"></rect></g></g><g id="shape-8211c007-6354-8069-8006-f685bf77a1f6"><g class="fills" id="fills-8211c007-6354-8069-8006-f685bf77a1f6"><path d="M24.973388671875,46.182861328125C24.97265625,47.11376953125,25.20654296875,48.029052734375,25.654541015625,48.844970703125L8.7001953125,48.844970703125C6.56591796875,48.83984375,4.837646484375,47.111572265625,4.832275390625,44.97705078125L4.832275390625,39.177490234375C4.84716796875,33.84423828125,9.166748046875,29.524658203125,14.5,29.509765625L31.222412109375,29.509765625C31.576416015625,30.694091796875,32.1533203125,31.79931640625,32.92236328125,32.7666015625C28.33447265625,33.555908203125,24.979248046875,37.531982421875,24.973388671875,42.1875ZM23.2001953125,26.60986328125C17.744140625,26.60986328125,13.32177734375,22.1875,13.32177734375,16.7314453125C13.32177734375,11.27587890625,17.744140625,6.853515625,23.2001953125,6.853515625C28.65576171875,6.853515625,33.078125,11.27587890625,33.078125,16.7314453125C33.078125,19.351806640625,32.037841796875,21.864013671875,30.18505859375,23.716796875C28.332275390625,25.56884765625,25.81982421875,26.60986328125,23.2001953125,26.60986328125ZM53.167724609375,46.182861328125C53.162353515625,47.651123046875,51.9736328125,48.83984375,50.505615234375,48.844970703125L30.53515625,48.844970703125C29.067138671875,48.83984375,27.87841796875,47.651123046875,27.873779296875,46.182861328125L27.873779296875,42.1875C27.885009765625,38.51708984375,30.85791015625,35.544189453125,34.5283203125,35.5322265625L46.51025390625,35.5322265625C50.1806640625,35.544189453125,53.15283203125,38.51708984375,53.164794921875,42.1875ZM47.32177734375,26.732177734375C47.32177734375,30.48828125,44.276611328125,33.533447265625,40.5205078125,33.533447265625C36.76416015625,33.533447265625,33.718994140625,30.48828125,33.718994140625,26.732177734375C33.718994140625,22.97607421875,36.76416015625,19.930908203125,40.5205078125,19.930908203125C44.276611328125,19.930908203125,47.32177734375,22.97607421875,47.32177734375,26.732177734375Z" style="fill: rgb(204, 164, 61); fill-opacity: 1;"></path></g></g></g></svg>