<svg xmlns="http://www.w3.org/2000/svg" xmlns:xlink="http://www.w3.org/1999/xlink" width="125" height="77" id="screenshot-8211c007-6354-8069-8006-f6750e926c45" viewBox="0 0 125 77" fill="none"><g id="shape-8211c007-6354-8069-8006-f6750e926c45" rx="0" ry="0"><g id="shape-8211c007-6354-8069-8006-f674dcc8698e" width="800" height="800" rx="0" ry="0" style="fill: rgb(0, 0, 0);"><g id="shape-8211c007-6354-8069-8006-f674dcc9798a" style="display: none;"><g class="fills" id="fills-8211c007-6354-8069-8006-f674dcc9798a"><rect width="64.88095238095252" height="65.26529336882277" x="60.119047619047706" transform="matrix(1.000000, 0.000000, 0.000000, 1.000000, 0.000000, 0.000000)" style="fill: none;" ry="0" fill="none" rx="0" y="8.682080310531546"></rect></g></g><g id="shape-8211c007-6354-8069-8006-f674dcca1039"><g class="fills" id="fills-8211c007-6354-8069-8006-f674dcca1039"><path d="M123.296875,34.7882080078125C118.0455322265625,35.1451416015625,110.5538330078125,40.3663330078125,106.7623291015625,42.07958984375C103.812255859375,43.41552734375,101.267822265625,44.5677490234375,99.047607421875,44.5677490234375C96.7564697265625,44.5677490234375,96.411865234375,42.915771484375,96.8883056640625,39.275146484375C96.9998779296875,38.4593505859375,98.074462890625,31.1986083984375,92.5595703125,31.5147705078125C90.0150146484375,31.667724609375,86.041015625,34.043701171875,75.376220703125,44.36376953125L79.583251953125,33.788818359375C82.6651611328125,26.048828125,74.1900634765625,18.3392333984375,66.434814453125,23.3056640625L60.8692626953125,27.068603515625C60.1190185546875,27.5478515625,59.89599609375,28.5574951171875,60.3724365234375,29.322265625L62.1160888671875,32.0755615234375C62.5926513671875,32.84033203125,63.59619140625,33.0648193359375,64.3565673828125,32.5753173828125L70.2364501953125,28.6083984375C72.101806640625,27.415283203125,74.3624267578125,29.342529296875,73.5513916015625,31.3719482421875L63.59619140625,56.4176025390625C62.9068603515625,58.1409912109375,63.8699951171875,60.894287109375,66.607177734375,60.894287109375C67.4486083984375,60.894287109375,68.2799072265625,60.5679931640625,68.898193359375,59.935791015625C73.1763916015625,55.63232421875,84.5811767578125,44.5677490234375,90.3089599609375,39.9686279296875C90.0859375,42.8748779296875,90.0960693359375,45.9749755859375,92.3973388671875,48.514404296875C93.9483642578125,50.2275390625,96.1787109375,51.0943603515625,99.0374755859375,51.0943603515625C102.646484375,51.0943603515625,105.93115234375,49.60546875,109.4083251953125,48.0350341796875C112.7537841796875,46.5257568359375,119.444580078125,41.6512451171875,123.4388427734375,41.324951171875C124.300537109375,41.25341796875,124.979736328125,40.5804443359375,124.979736328125,39.7137451171875L124.979736328125,36.4403076171875C125,35.5123291015625,124.2193603515625,34.72705078125,123.296875,34.7882080078125Z"></path></g></g></g><g id="shape-8211c007-6354-8069-8006-f674eeefc0fb" width="800" height="800" rx="0" ry="0" style="fill: rgb(0, 0, 0);"><g id="shape-8211c007-6354-8069-8006-f674eeefc0fc" style="display: none;"><g class="fills" id="fills-8211c007-6354-8069-8006-f674eeefc0fc"><rect width="62.52486966869401" height="62.84550373399429" x="7.010842396640101" transform="matrix(0.965542, -0.260249, 0.257396, 0.966306, -8.590917, 11.257790)" style="fill: none;" ry="0" fill="none" rx="0" y="7.07724813300274"></rect></g></g><g id="shape-8211c007-6354-8069-8006-f674eeefc0fd"><g class="fills" id="fills-8211c007-6354-8069-8006-f674eeefc0fd"><path d="M65.2562255859375,24.7183837890625C60.458251953125,26.367431640625,54.7816162109375,33.1046142578125,51.67822265625,35.649658203125C49.264404296875,37.632568359375,47.182373046875,39.3428955078125,45.1165771484375,39.899658203125C42.98486328125,40.474365234375,42.2547607421875,39.0235595703125,41.7955322265625,35.5166015625C41.6971435546875,34.7296142578125,40.8974609375,27.7039794921875,35.8443603515625,29.38134765625C33.5146484375,30.1617431640625,30.40576171875,33.369384765625,23.040283203125,45.646728515625L24.3338623046875,34.7515869140625C25.283203125,26.77685546875,15.486328125,21.728759765625,9.5010986328125,28.294921875L5.2552490234375,33.192138671875C4.6759033203125,33.826171875,4.7186279296875,34.821533203125,5.3514404296875,35.413818359375L7.6563720703125,37.5382080078125C8.2894287109375,38.13037109375,9.27880859375,38.087646484375,9.8648681640625,37.44140625L14.3529052734375,32.275634765625C15.792724609375,30.697509765625,18.3741455078125,31.9239501953125,18.1224365234375,34.0157470703125L15.0667724609375,59.8167724609375C14.8526611328125,61.5931396484375,16.4310302734375,63.9136962890625,18.97802734375,63.2271728515625C19.760986328125,63.01611328125,20.4534912109375,62.504150390625,20.8721923828125,61.7608642578125C23.786376953125,56.6834716796875,31.6558837890625,43.5277099609375,35.8455810546875,37.8118896484375C36.3583984375,40.5721435546875,37.1361083984375,43.4541015625,39.9068603515625,45.23974609375C41.774658203125,46.44482421875,44.0648193359375,46.6922607421875,46.7247314453125,45.9749755859375C50.0828857421875,45.06982421875,52.7701416015625,42.8607177734375,55.6163330078125,40.5274658203125C58.35498046875,38.283935546875,63.3726806640625,32.0703125,67.0084228515625,30.7650146484375C67.7923583984375,30.4825439453125,68.257568359375,29.6859130859375,68.0428466796875,28.87939453125L67.2314453125,25.83349609375C67.0203857421875,24.9649658203125,66.099365234375,24.429931640625,65.2562255859375,24.7183837890625Z"></path></g></g></g></g></svg>