<svg xmlns="http://www.w3.org/2000/svg" xmlns:xlink="http://www.w3.org/1999/xlink" width="56" height="56" id="screenshot-8211c007-6354-8069-8006-f685bf77a1d9" viewBox="0 0 56 56" fill="none"><g id="shape-8211c007-6354-8069-8006-f685bf77a1d9" height="800" width="800" xml:space="preserve" rx="0" ry="0" style="fill: rgb(0, 0, 0);"><g id="shape-8211c007-6354-8069-8006-f685bf77a1da" style="display: none;"><g class="fills" id="fills-8211c007-6354-8069-8006-f685bf77a1da"><rect width="56" height="56" x="0" transform="matrix(1.000000, 0.000000, 0.000000, 1.000000, 0.000000, 0.000000)" style="fill: none;" ry="0" fill="none" rx="0" y="0"></rect></g></g><g id="shape-8211c007-6354-8069-8006-f685bf77a1db"><g class="fills" id="fills-8211c007-6354-8069-8006-f685bf77a1db"><path d="M53.62247848510742,43.470664978027344L51.95792770385742,43.470664978027344L51.95792770385742,27.182579040527344C52.43351364135742,27.539024353027344,52.90909957885742,27.777305603027344,53.50333786010742,27.777305603027344C54.21671676635742,27.777305603027344,54.81095504760742,27.539024353027344,55.40568161010742,27.063438415527344C56.23771286010742,26.112266540527344,56.11906051635742,24.567100524902344,55.16788864135742,23.734825134277344L38.04777145385742,8.397910118103027C37.21525192260742,7.565634727478027,35.78849411010742,7.565634727478027,34.95646286010742,8.397910118103027L27.902263641357422,14.645956993103027L20.927165985107422,8.397910118103027C20.095134735107422,7.565634727478027,18.668376922607422,7.565634727478027,17.836345672607422,8.397910118103027L0.8348801136016846,23.615928649902344C-0.23494412004947662,24.567100524902344,-0.23494412004947662,25.993614196777344,0.5970871448516846,26.944786071777344C1.4296066761016846,28.014610290527344,2.9750168323516846,28.014610290527344,3.9261887073516846,27.182579040527344L3.9261887073516846,43.470664978027344L2.3807785511016846,43.470664978027344C1.0726730823516846,43.470664978027344,0.0028488426469266415,44.540489196777344,0.0028488426469266415,45.848594665527344C0.0028488426469266415,47.156211853027344,1.0726730823516846,48.226036071777344,2.3807785511016846,48.226036071777344L6.3041181564331055,48.226036071777344L23.424236297607422,48.226036071777344L32.45988082885742,48.226036071777344L49.57999801635742,48.226036071777344L53.50333786010742,48.226036071777344C54.81095504760742,48.226036071777344,55.99991989135742,47.156211853027344,55.99991989135742,45.848594665527344C55.99991989135742,44.540489196777344,54.93009567260742,43.470664978027344,53.62247848510742,43.470664978027344ZM8.682047843933105,22.902549743652344L19.381755828857422,13.272421836853027L30.081951141357422,22.829063415527344L30.081951141357422,43.470664978027344L23.424236297607422,43.470664978027344L8.682047843933105,43.470664978027344L8.682047843933105,22.902549743652344ZM34.83781051635742,43.470664978027344L34.83781051635742,27.076133728027344L34.95646286010742,27.182579040527344C35.43204879760742,27.539024353027344,35.90763473510742,27.777305603027344,36.50187301635742,27.777305603027344C37.09659957885742,27.777305603027344,37.80997848510742,27.539024353027344,38.28556442260742,27.063438415527344C39.11759567260742,26.112266540527344,38.99894332885742,24.567100524902344,38.04777145385742,23.734825134277344L31.432537078857422,17.808555603027344L36.50187301635742,13.272421836853027L47.20206832885742,22.902549743652344L47.20206832885742,43.470664978027344L34.83781051635742,43.470664978027344Z" style="fill: rgb(204, 164, 61);"></path></g></g></g></svg>