<svg xmlns="http://www.w3.org/2000/svg" xmlns:xlink="http://www.w3.org/1999/xlink" width="40.923" height="51.692" id="screenshot-8211c007-6354-8069-8006-f685bf77a1e0" viewBox="0 0 40.923 51.692" fill="none"><g id="shape-8211c007-6354-8069-8006-f685bf77a1e0" width="800" height="800" xml:space="preserve" rx="0" ry="0" style="fill: rgb(0, 0, 0);"><g id="shape-8211c007-6354-8069-8006-f685bf77a1e1"><g class="fills" id="fills-8211c007-6354-8069-8006-f685bf77a1e1"><path d="M14.538330078125,7.646240234375C14.753662109375,8.292236328125,15.39990234375,8.615478515625,16.0458984375,8.615478515625L24.76904296875,8.615478515625C25.415283203125,8.615478515625,26.061279296875,8.292236328125,26.276611328125,7.646240234375L29.72314453125,1.292236328125C29.9384765625,0.646240234375,29.507568359375,0,28.861572265625,0L20.46142578125,0L12.061279296875,0C11.415283203125,0,10.984375,0.646240234375,11.3076171875,1.184814453125L14.538330078125,7.646240234375Z" style="fill: rgb(204, 164, 61); fill-opacity: 1;"></path></g></g><g id="shape-8211c007-6354-8069-8006-f685bf77a1e2"><g class="fills" id="fills-8211c007-6354-8069-8006-f685bf77a1e2"><path d="M25.52294921875,13.677001953125L15.39990234375,13.677001953125C6.89208984375,13.677001953125,0,20.677001953125,0,29.292236328125L0,46.52294921875C0,49.3232421875,2.261474609375,51.6923828125,5.169189453125,51.6923828125L35.753662109375,51.6923828125C38.5537109375,51.6923828125,40.9228515625,49.3232421875,40.9228515625,46.52294921875L40.9228515625,29.292236328125C40.9228515625,20.677001953125,33.9228515625,13.677001953125,25.52294921875,13.677001953125ZM23.0458984375,42.75390625L23.0458984375,45.661376953125C23.0458984375,46.199951171875,22.507568359375,46.52294921875,21.968994140625,46.52294921875L18.52294921875,46.52294921875C17.984375,46.52294921875,17.876953125,46.199951171875,17.876953125,45.661376953125L17.876953125,42.861572265625C15.292236328125,42.3232421875,13.13818359375,41.246337890625,12.599853515625,40.707763671875C11.953857421875,40.0615234375,11.73828125,39.52294921875,12.276611328125,38.769287109375L13.353515625,37.046142578125C13.5693359375,36.615478515625,14.107666015625,36.400146484375,14.646240234375,36.400146484375C14.968994140625,36.400146484375,15.292236328125,36.507568359375,15.507568359375,36.615478515625L15.615234375,36.615478515625C17.33837890625,37.6923828125,18.845947265625,38.123046875,19.9228515625,38.123046875C21.107666015625,38.123046875,22.076904296875,37.47705078125,22.076904296875,36.830810546875C22.076904296875,36.292236328125,21.753662109375,35.4306640625,18.52294921875,34.353759765625C15.615234375,33.27685546875,12.061279296875,31.553955078125,12.061279296875,27.5693359375C12.061279296875,25.199951171875,13.5693359375,22.507568359375,17.876953125,21.646240234375L17.876953125,19.0615234375C17.876953125,18.52294921875,18.09228515625,18.199951171875,18.52294921875,18.199951171875L21.968994140625,18.199951171875C22.507568359375,18.199951171875,23.0458984375,18.52294921875,23.0458984375,19.0615234375L23.0458984375,21.53857421875C24.76904296875,21.96923828125,26.599853515625,22.830810546875,27.24609375,23.26171875C27.5693359375,23.47705078125,27.78466796875,23.90771484375,27.89208984375,24.338623046875C28,24.769287109375,27.78466796875,25.199951171875,27.5693359375,25.41552734375L26.061279296875,26.923095703125C25.73828125,27.353759765625,25.09228515625,27.677001953125,24.661376953125,27.677001953125C24.446044921875,27.677001953125,24.122802734375,27.5693359375,23.907470703125,27.461669921875C22.1845703125,26.492431640625,20.78466796875,25.9541015625,19.815185546875,25.9541015625C18.415283203125,25.9541015625,17.76904296875,26.60009765625,17.76904296875,27.031005859375C17.76904296875,27.677001953125,18.09228515625,28.3232421875,21,29.400146484375C24.5537109375,30.58447265625,28.538330078125,32.52294921875,28.538330078125,36.615478515625C28.646240234375,39.41552734375,26.384521484375,41.892333984375,23.0458984375,42.75390625Z" style="fill: rgb(204, 164, 61); fill-opacity: 1;"></path></g></g></g></svg>