<svg xmlns="http://www.w3.org/2000/svg" xmlns:xlink="http://www.w3.org/1999/xlink" width="32" height="32" id="screenshot-e04f6697-4948-80cb-8006-f7eabd34f119" viewBox="0 0 32 32" fill="none"><g id="shape-e04f6697-4948-80cb-8006-f7eabd34f119" width="800" height="800" rx="0" ry="0" style="fill: rgb(0, 0, 0);"><g id="shape-e04f6697-4948-80cb-8006-f7eabd34f11a" style="display: none;"><g class="fills" id="fills-e04f6697-4948-80cb-8006-f7eabd34f11a"><rect width="32" height="32" x="0" transform="matrix(1.000000, 0.000000, 0.000000, 1.000000, 0.000000, 0.000000)" style="fill: rgb(204, 164, 61); fill-opacity: 1;" ry="0" fill="none" rx="0" y="0"></rect></g></g><g id="shape-e04f6697-4948-80cb-8006-f7eabd34f11b"><g class="fills" id="fills-e04f6697-4948-80cb-8006-f7eabd34f11b"><path d="M12.669921875,5.673828125C12.265380859375,4.66015625,11.2847900390625,4,10.193603515625,4L6.52685546875,4C5.1309814453125,4,4,5.1279296875,4,6.52880859375C4,18.38818359375,13.61376953125,28,25.474365234375,28C26.869140625,28,28,26.8720703125,28,25.47119140625L28.000244140625,21.80908203125C28.000244140625,20.716796875,27.33642578125,19.734375,26.324462890625,19.32861328125L22.808837890625,17.9228515625C21.900146484375,17.56103515625,20.86376953125,17.72119140625,20.111572265625,18.34716796875L19.204833984375,19.1083984375C18.144775390625,19.9873046875,16.5859375,19.9208984375,15.611083984375,18.94140625L13.056396484375,16.38916015625C12.08154296875,15.40966796875,12.00830078125,13.85693359375,12.892333984375,12.79638671875L13.6484375,11.8896484375C14.275390625,11.13818359375,14.4410400390625,10.09716796875,14.0765380859375,9.18896484375L12.669921875,5.673828125Z" fill="none" stroke-linecap="round" stroke-linejoin="round" style="fill: rgb(204, 164, 61); fill-opacity: 1;"></path></g><g fill="none" stroke-linecap="round" stroke-linejoin="round" id="strokes-9ed981d3-7b46-80bc-8007-19306986ffa6-e04f6697-4948-80cb-8006-f7eabd34f11b" class="strokes"><g class="inner-stroke-shape"><defs><clipPath id="inner-stroke-render-3-e04f6697-4948-80cb-8006-f7eabd34f11b-0"><use href="#stroke-shape-render-3-e04f6697-4948-80cb-8006-f7eabd34f11b-0"></use></clipPath><path d="M12.669921875,5.673828125C12.265380859375,4.66015625,11.2847900390625,4,10.193603515625,4L6.52685546875,4C5.1309814453125,4,4,5.1279296875,4,6.52880859375C4,18.38818359375,13.61376953125,28,25.474365234375,28C26.869140625,28,28,26.8720703125,28,25.47119140625L28.000244140625,21.80908203125C28.000244140625,20.716796875,27.33642578125,19.734375,26.324462890625,19.32861328125L22.808837890625,17.9228515625C21.900146484375,17.56103515625,20.86376953125,17.72119140625,20.111572265625,18.34716796875L19.204833984375,19.1083984375C18.144775390625,19.9873046875,16.5859375,19.9208984375,15.611083984375,18.94140625L13.056396484375,16.38916015625C12.08154296875,15.40966796875,12.00830078125,13.85693359375,12.892333984375,12.79638671875L13.6484375,11.8896484375C14.275390625,11.13818359375,14.4410400390625,10.09716796875,14.0765380859375,9.18896484375L12.669921875,5.673828125Z" id="stroke-shape-render-3-e04f6697-4948-80cb-8006-f7eabd34f11b-0" style="fill: none; stroke-width: 6; stroke: rgb(204, 164, 61); stroke-opacity: 1;"></path></defs><use href="#stroke-shape-render-3-e04f6697-4948-80cb-8006-f7eabd34f11b-0" clip-path="url('#inner-stroke-render-3-e04f6697-4948-80cb-8006-f7eabd34f11b-0')"></use></g></g></g></g></svg>