<svg xmlns="http://www.w3.org/2000/svg" xmlns:xlink="http://www.w3.org/1999/xlink" width="16" height="16" id="screenshot-daa6fb2c-df80-8075-8006-fb86e7e26c54" viewBox="0 0 16 16" fill="none"><g id="shape-daa6fb2c-df80-8075-8006-fb86e7e26c54" width="800" height="800" rx="0" ry="0" style="fill: rgb(0, 0, 0);"><g id="shape-daa6fb2c-df80-8075-8006-fb86e7e26c55" style="display: none;"><g class="fills" id="fills-daa6fb2c-df80-8075-8006-fb86e7e26c55"><rect width="16" height="16" x="0" transform="matrix(1.000000, 0.000000, 0.000000, 1.000000, 0.000000, 0.000000)" style="fill: none;" ry="0" fill="none" rx="0" y="0"></rect></g></g><g id="shape-daa6fb2c-df80-8075-8006-fb86e7e26c56"><g class="fills" id="fills-daa6fb2c-df80-8075-8006-fb86e7e26c56"><path d="M6.3349456787109375,2.837890625C6.1325531005859375,2.33203125,5.6421966552734375,2,5.0969085693359375,2L3.2631683349609375,2C2.5655364990234375,2,1.9999847412109375,2.5654296875,1.9999847412109375,3.263671875C1.9999847412109375,9.193359375,6.8071136474609375,14,12.737045288085938,14C13.434555053710938,14,13.999984741210938,13.4345703125,13.999984741210938,12.736328125L14.000228881835938,10.90234375C14.000228881835938,10.357421875,13.668441772460938,9.8671875,13.162338256835938,9.6650390625L11.404525756835938,8.9619140625C10.949935913085938,8.7802734375,10.432113647460938,8.861328125,10.055892944335938,9.17578125L9.602279663085938,9.5537109375C9.072494506835938,9.9951171875,8.292953491210938,9.9599609375,7.8054046630859375,9.47265625L6.5280609130859375,8.1943359375C6.0405120849609375,7.70703125,6.0043792724609375,6.927734375,6.4460296630859375,6.3984375L6.8242034912109375,5.9443359375C7.1376800537109375,5.568359375,7.2203216552734375,5.05078125,7.0384368896484375,4.595703125L6.3349456787109375,2.837890625Z" fill="none" stroke-linecap="round" stroke-linejoin="round" style="fill: none;"></path></g><g fill="none" stroke-linecap="round" stroke-linejoin="round" id="strokes-7cef199d-b515-8084-8007-19408ecf03ec-daa6fb2c-df80-8075-8006-fb86e7e26c56" class="strokes"><g class="inner-stroke-shape"><defs><clipPath id="inner-stroke-render-3-daa6fb2c-df80-8075-8006-fb86e7e26c56-0"><use href="#stroke-shape-render-3-daa6fb2c-df80-8075-8006-fb86e7e26c56-0"></use></clipPath><path d="M6.3349456787109375,2.837890625C6.1325531005859375,2.33203125,5.6421966552734375,2,5.0969085693359375,2L3.2631683349609375,2C2.5655364990234375,2,1.9999847412109375,2.5654296875,1.9999847412109375,3.263671875C1.9999847412109375,9.193359375,6.8071136474609375,14,12.737045288085938,14C13.434555053710938,14,13.999984741210938,13.4345703125,13.999984741210938,12.736328125L14.000228881835938,10.90234375C14.000228881835938,10.357421875,13.668441772460938,9.8671875,13.162338256835938,9.6650390625L11.404525756835938,8.9619140625C10.949935913085938,8.7802734375,10.432113647460938,8.861328125,10.055892944335938,9.17578125L9.602279663085938,9.5537109375C9.072494506835938,9.9951171875,8.292953491210938,9.9599609375,7.8054046630859375,9.47265625L6.5280609130859375,8.1943359375C6.0405120849609375,7.70703125,6.0043792724609375,6.927734375,6.4460296630859375,6.3984375L6.8242034912109375,5.9443359375C7.1376800537109375,5.568359375,7.2203216552734375,5.05078125,7.0384368896484375,4.595703125L6.3349456787109375,2.837890625Z" id="stroke-shape-render-3-daa6fb2c-df80-8075-8006-fb86e7e26c56-0" style="fill: none; stroke-width: 6; stroke: rgb(248, 246, 240); stroke-opacity: 1;"></path></defs><use href="#stroke-shape-render-3-daa6fb2c-df80-8075-8006-fb86e7e26c56-0" clip-path="url('#inner-stroke-render-3-daa6fb2c-df80-8075-8006-fb86e7e26c56-0')"></use></g></g></g></g></svg>