<svg xmlns="http://www.w3.org/2000/svg" xmlns:xlink="http://www.w3.org/1999/xlink" width="16" height="16" id="screenshot-bc46741c-38d0-803f-8006-eee327370f21" viewBox="0 0 16 16" fill="none"><g id="shape-bc46741c-38d0-803f-8006-eee327370f21" width="800" height="800" rx="0" ry="0" style="fill: rgb(0, 0, 0);"><g id="shape-bc46741c-38d0-803f-8006-eee327370f22" style="display: none;"><g class="fills" id="fills-bc46741c-38d0-803f-8006-eee327370f22"><rect width="16" height="16" x="0" transform="matrix(1.000000, 0.000000, 0.000000, 1.000000, 0.000000, 0.000000)" style="fill: none;" ry="0" fill="none" rx="0" y="0"></rect></g></g><g id="shape-bc46741c-38d0-803f-8006-eee327370f23"><g class="fills" id="fills-bc46741c-38d0-803f-8006-eee327370f23"><path d="M9.5999755859375,5.775390625C9.5999755859375,6.65936279296875,8.884033203125,7.375396728515625,8,7.375396728515625C7.115966796875,7.375396728515625,6.4000244140625,6.65936279296875,6.4000244140625,5.775390625C6.4000244140625,4.891021728515625,7.115966796875,4.175384521484375,8,4.175384521484375C8.884033203125,4.175384521484375,9.5999755859375,4.891021728515625,9.5999755859375,5.775390625M8,13.600006103515625C8,13.600006103515625,4,8,4,5.600006103515625C4,3.39453125,5.7943115234375,1.600006103515625,8,1.600006103515625C10.2056884765625,1.600006103515625,12,3.39453125,12,5.600006103515625C12,8,8,13.600006103515625,8,13.600006103515625M8,-2.842170943040401e-14C4.9072265625,-2.842170943040401e-14,2.4000244140625,2.50701904296875,2.4000244140625,5.600006103515625C2.4000244140625,8.692962646484375,8,16,8,16C8,16,13.5999755859375,8.692962646484375,13.5999755859375,5.600006103515625C13.5999755859375,2.50701904296875,11.0927734375,-2.842170943040401e-14,8,-2.842170943040401e-14" fill-rule="evenodd" style="fill: rgb(248, 246, 240);"></path></g></g></g></svg>