<svg xmlns="http://www.w3.org/2000/svg" xmlns:xlink="http://www.w3.org/1999/xlink" width="16" height="16" id="screenshot-daa6fb2c-df80-8075-8006-fb8722c366c3" viewBox="0 0 16 16" fill="none"><g id="shape-daa6fb2c-df80-8075-8006-fb8722c366c3" width="800" height="800" rx="0" ry="0" style="fill: rgb(0, 0, 0);"><g id="shape-daa6fb2c-df80-8075-8006-fb8722c366c4" style="display: none;"><g class="fills" id="fills-daa6fb2c-df80-8075-8006-fb8722c366c4"><rect width="16" height="16" x="0" transform="matrix(1.000000, 0.000000, 0.000000, 1.000000, 0.000000, 0.000000)" style="fill: none;" ry="0" fill="none" rx="0" y="0"></rect></g></g><g id="shape-daa6fb2c-df80-8075-8006-fb8722c366c5"><g class="fills" id="fills-daa6fb2c-df80-8075-8006-fb8722c366c5"><path d="M9.5999755859375,5.775390625C9.5999755859375,6.6591796875,8.884033203125,7.375,8,7.375C7.115966796875,7.375,6.4000244140625,6.6591796875,6.4000244140625,5.775390625C6.4000244140625,4.890625,7.115966796875,4.17578125,8,4.17578125C8.884033203125,4.17578125,9.5999755859375,4.890625,9.5999755859375,5.775390625M8,13.599609375C8,13.599609375,4,8,4,5.599609375C4,3.39453125,5.7943115234375,1.599609375,8,1.599609375C10.2056884765625,1.599609375,12,3.39453125,12,5.599609375C12,8,8,13.599609375,8,13.599609375M8,0C4.9072265625,0,2.4000244140625,2.5068359375,2.4000244140625,5.599609375C2.4000244140625,8.693359375,8,16,8,16C8,16,13.5999755859375,8.693359375,13.5999755859375,5.599609375C13.5999755859375,2.5068359375,11.0927734375,0,8,0" fill-rule="evenodd" style="fill: rgb(248, 246, 240);"></path></g></g></g></svg>