<svg xmlns="http://www.w3.org/2000/svg" xmlns:xlink="http://www.w3.org/1999/xlink" width="58" height="58" id="screenshot-8211c007-6354-8069-8006-f685bf77a1fb" viewBox="0 0 58 58" fill="none"><g id="shape-8211c007-6354-8069-8006-f685bf77a1fb" width="800" height="800" rx="0" ry="0" style="fill: rgb(0, 0, 0);"><g id="shape-8211c007-6354-8069-8006-f685bf77a1fc"><defs style="fill: rgb(204, 164, 61);"><g id="shape-8211c007-6354-8069-8006-f685bf77a1fe"><style>#shape-8211c007-6354-8069-8006-f685bf77a1fb{ .cls-1 {        fill: none;      } }</style></g></defs></g><g id="shape-8211c007-6354-8069-8006-f685bf77a1fd"><g class="fills" id="fills-8211c007-6354-8069-8006-f685bf77a1fd"><path d="M36.25,29C36.25,34.005126953125,40.30712890625,38.0625,45.3125,38.0625C50.31787109375,38.0625,54.375,34.005126953125,54.375,29C54.375,28.718505859375,54.3095703125,28.441162109375,54.183837890625,28.189208984375L46.9365234375,13.69580078125C46.91162109375,13.64501953125,46.88427734375,13.595458984375,46.85400390625,13.547607421875C46.52392578125,13.01318359375,45.94091796875,12.6875,45.3125,12.6875L34.114501953125,12.6875C33.560546875,11.15234375,32.34912109375,9.9453125,30.8125,9.396240234375L30.8125,3.625L27.1875,3.625L27.1875,9.396240234375C25.65087890625,9.9453125,24.439453125,11.15234375,23.885498046875,12.6875L12.6875,12.6875C12.0009765625,12.6875,11.373291015625,13.0751953125,11.066162109375,13.689208984375L3.816162109375,28.189208984375C3.6904296875,28.441162109375,3.625,28.718505859375,3.625,29C3.625,34.005126953125,7.68212890625,38.0625,12.6875,38.0625C17.69287109375,38.0625,21.75,34.005126953125,21.75,29C21.75,28.718505859375,21.6845703125,28.441162109375,21.558837890625,28.189208984375L15.62060546875,16.3125L23.885498046875,16.3125C24.439453125,17.84765625,25.65087890625,19.05419921875,27.1875,19.60302734375L27.1875,50.75L10.875,50.75L10.875,54.375L47.125,54.375L47.125,50.75L30.8125,50.75L30.8125,19.603759765625C32.34912109375,19.0546875,33.560546875,17.84765625,34.114501953125,16.3125L42.37939453125,16.3125L36.441162109375,28.189208984375C36.3154296875,28.441162109375,36.25,28.718505859375,36.25,29ZM12.6875,34.4375C10.391357421875,34.429443359375,8.34814453125,32.978271484375,7.5849609375,30.8125L17.789306640625,30.8125C17.026123046875,32.978271484375,14.983642578125,34.429443359375,12.6875,34.4375ZM17.0048828125,27.1875L8.3701171875,27.1875L12.6875,18.553466796875ZM29,16.3125C27.9990234375,16.3125,27.1875,15.5009765625,27.1875,14.5C27.1875,13.4990234375,27.9990234375,12.6875,29,12.6875C30.0009765625,12.6875,30.8125,13.4990234375,30.8125,14.5C30.8115234375,15.50048828125,30.00048828125,16.311767578125,29,16.3125ZM45.3125,34.4375C43.016357421875,34.429443359375,40.97314453125,32.978271484375,40.2099609375,30.8125L50.414306640625,30.8125C49.651123046875,32.978271484375,47.608642578125,34.429443359375,45.3125,34.4375ZM45.3125,18.553466796875L49.6298828125,27.1875L40.9951171875,27.1875Z" style="fill: rgb(204, 164, 61);"></path></g></g></g></svg>