<svg xmlns="http://www.w3.org/2000/svg" xmlns:xlink="http://www.w3.org/1999/xlink" width="228.002" height="36" id="screenshot-8211c007-6354-8069-8006-f69e1b5ab206" viewBox="-0 0 228.002 36" fill="none"><g id="shape-8211c007-6354-8069-8006-f69e1b5ab206"><g class="frame-container-wrapper"><g class="frame-container-blur"><g class="frame-container-shadows"><g fill="none"><g class="fills" id="fills-8211c007-6354-8069-8006-f69e1b5ab206"><rect rx="0" ry="0" x="0" y="0" width="228.00138607958002" height="36" transform="matrix(1.000000, 0.000000, 0.000000, 1.000000, 0.000000, 0.000000)" class="frame-background"></rect></g><g class="frame-children"><g id="shape-8211c007-6354-8069-8006-f69e1b5ab207" width="800" height="800" xml:space="preserve" rx="0" ry="0" style="fill: rgb(0, 0, 0);"><g id="shape-8211c007-6354-8069-8006-f69e1b5ab20c" style="display: none;"><g class="fills" id="fills-8211c007-6354-8069-8006-f69e1b5ab20c"><rect width="36" height="36" x="0.0003465198950038939" transform="matrix(1.000000, 0.000000, 0.000000, 1.000000, 0.000000, 0.000000)" style="fill: none;" ry="0" fill="none" rx="0" y="0"></rect></g></g><g id="shape-8211c007-6354-8069-8006-f69e1b5ab20d"><g class="fills" id="fills-8211c007-6354-8069-8006-f69e1b5ab20d"><path d="M35.940155029296875,13.65625C35.8062744140625,13.255859375,35.45977783203125,12.96484375,35.04296875,12.900390625L23.976318359375,11.20947265625L19.01788330078125,0.646484375C18.832275390625,0.251953125,18.435150146484375,0,17.99920654296875,0C17.563262939453125,0,17.166717529296875,0.251953125,16.98052978515625,0.646484375L12.0220947265625,11.20947265625L0.9554901123046875,12.90087890625C0.5386505126953125,12.96484375,0.1927032470703125,13.25634765625,0.0582733154296875,13.65625C-0.0755767822265625,14.0556640625,0.0251007080078125,14.4970703125,0.3198394775390625,14.798828125L8.360214233398438,23.04296875L6.4600982666015625,34.689453125C6.3903350830078125,35.1142578125,6.5697784423828125,35.54248046875,6.9224700927734375,35.7900390625C7.1159820556640625,35.9267578125,7.3426666259765625,35.99609375,7.5699005126953125,35.99609375C7.7566680908203125,35.99609375,7.9445343017578125,35.94873046875,8.114395141601562,35.85546875L17.9986572265625,30.388671875L27.882904052734375,35.85546875C28.052764892578125,35.94873046875,28.24066162109375,35.99609375,28.427398681640625,35.99609375C28.6546630859375,35.99609375,28.88189697265625,35.9267578125,29.0748291015625,35.7900390625C29.427520751953125,35.54248046875,29.606964111328125,35.1142578125,29.537200927734375,34.689453125L27.6370849609375,23.04296875L35.677459716796875,14.798828125C35.9727783203125,14.49609375,36.074005126953125,14.0556640625,35.940155029296875,13.65625Z" style="fill: rgb(204, 164, 61);"></path></g></g></g><g id="shape-8211c007-6354-8069-8006-f69e1b5ab208" width="800" height="800" xml:space="preserve" rx="0" ry="0" style="fill: rgb(0, 0, 0);"><g id="shape-8211c007-6354-8069-8006-f69e1b5ab20e" style="display: none;"><g class="fills" id="fills-8211c007-6354-8069-8006-f69e1b5ab20e"><rect width="36" height="36" x="48.00069303979001" transform="matrix(1.000000, 0.000000, 0.000000, 1.000000, 0.000000, 0.000000)" style="fill: none;" ry="0" fill="none" rx="0" y="0"></rect></g></g><g id="shape-8211c007-6354-8069-8006-f69e1b5ab20f"><g class="fills" id="fills-8211c007-6354-8069-8006-f69e1b5ab20f"><path d="M83.94052124023438,13.65625C83.806640625,13.255859375,83.46014404296875,12.96435546875,83.0433349609375,12.900390625L71.9766845703125,11.20947265625L67.01824951171875,0.646484375C66.8326416015625,0.251953125,66.43551635742188,0,65.99957275390625,0C65.56362915039062,0,65.16708374023438,0.251953125,64.98089599609375,0.646484375L60.0224609375,11.20947265625L48.955841064453125,12.90087890625C48.53900146484375,12.96435546875,48.19305419921875,13.25634765625,48.058624267578125,13.65625C47.924774169921875,14.0556640625,48.02545166015625,14.4970703125,48.3201904296875,14.798828125L56.360565185546875,23.04296875L54.46044921875,34.689453125C54.39068603515625,35.1142578125,54.57012939453125,35.54248046875,54.922821044921875,35.7900390625C55.1163330078125,35.9267578125,55.343017578125,35.99609375,55.57025146484375,35.99609375C55.75701904296875,35.99609375,55.94488525390625,35.94873046875,56.11474609375,35.85546875L65.9990234375,30.388671875L75.88327026367188,35.85546875C76.05313110351562,35.94873046875,76.24102783203125,35.99609375,76.42776489257812,35.99609375C76.655029296875,35.99609375,76.88226318359375,35.9267578125,77.0751953125,35.7900390625C77.42788696289062,35.54248046875,77.60733032226562,35.1142578125,77.53756713867188,34.689453125L75.637451171875,23.04296875L83.67782592773438,14.798828125C83.97314453125,14.49609375,84.07437133789062,14.0556640625,83.94052124023438,13.65625Z" style="fill: rgb(204, 164, 61);"></path></g></g></g><g id="shape-8211c007-6354-8069-8006-f69e1b5ab209" width="800" height="800" xml:space="preserve" rx="0" ry="0" style="fill: rgb(0, 0, 0);"><g id="shape-8211c007-6354-8069-8006-f69e1b5ab210" style="display: none;"><g class="fills" id="fills-8211c007-6354-8069-8006-f69e1b5ab210"><rect width="36" height="36" x="96.00103955968501" transform="matrix(1.000000, 0.000000, 0.000000, 1.000000, 0.000000, 0.000000)" style="fill: none;" ry="0" fill="none" rx="0" y="0"></rect></g></g><g id="shape-8211c007-6354-8069-8006-f69e1b5ab211"><g class="fills" id="fills-8211c007-6354-8069-8006-f69e1b5ab211"><path d="M131.94085693359375,13.65625C131.80697631835938,13.255859375,131.46047973632812,12.96435546875,131.04367065429688,12.900390625L119.97702026367188,11.20947265625L115.01858520507812,0.646484375C114.83297729492188,0.251953125,114.43585205078125,0,113.99990844726562,0C113.56396484375,0,113.16741943359375,0.251953125,112.98123168945312,0.646484375L108.02279663085938,11.20947265625L96.9561767578125,12.90087890625C96.53933715820312,12.96435546875,96.19338989257812,13.25634765625,96.0589599609375,13.65625C95.92510986328125,14.0556640625,96.02578735351562,14.4970703125,96.32052612304688,14.798828125L104.36090087890625,23.04296875L102.46078491210938,34.689453125C102.39102172851562,35.1142578125,102.57046508789062,35.54248046875,102.92315673828125,35.7900390625C103.11666870117188,35.9267578125,103.34335327148438,35.99609375,103.57058715820312,35.99609375C103.75735473632812,35.99609375,103.94522094726562,35.94873046875,104.11508178710938,35.85546875L113.99935913085938,30.388671875L123.88360595703125,35.85546875C124.053466796875,35.94873046875,124.24136352539062,35.99609375,124.4281005859375,35.99609375C124.65536499023438,35.99609375,124.88259887695312,35.9267578125,125.07553100585938,35.7900390625C125.42822265625,35.54248046875,125.607666015625,35.1142578125,125.53790283203125,34.689453125L123.63778686523438,23.04296875L131.67816162109375,14.798828125C131.97348022460938,14.49609375,132.07470703125,14.0556640625,131.94085693359375,13.65625Z" style="fill: rgb(204, 164, 61);"></path></g></g></g><g id="shape-8211c007-6354-8069-8006-f69e1b5ab20a" width="800" height="800" xml:space="preserve" rx="0" ry="0" style="fill: rgb(0, 0, 0);"><g id="shape-8211c007-6354-8069-8006-f69e1b5ab212" style="display: none;"><g class="fills" id="fills-8211c007-6354-8069-8006-f69e1b5ab212"><rect width="36" height="36" x="144.00138607958002" transform="matrix(1.000000, 0.000000, 0.000000, 1.000000, 0.000000, 0.000000)" style="fill: none;" ry="0" fill="none" rx="0" y="0"></rect></g></g><g id="shape-8211c007-6354-8069-8006-f69e1b5ab213"><g class="fills" id="fills-8211c007-6354-8069-8006-f69e1b5ab213"><path d="M179.94119262695312,13.65625C179.80731201171875,13.255859375,179.4608154296875,12.96435546875,179.04400634765625,12.900390625L167.97735595703125,11.20947265625L163.0189208984375,0.646484375C162.83331298828125,0.251953125,162.43618774414062,0,162.000244140625,0C161.56430053710938,0,161.16775512695312,0.251953125,160.9815673828125,0.646484375L156.02313232421875,11.20947265625L144.95651245117188,12.90087890625C144.5396728515625,12.96435546875,144.1937255859375,13.25634765625,144.05929565429688,13.65625C143.92544555664062,14.0556640625,144.026123046875,14.4970703125,144.32086181640625,14.798828125L152.36123657226562,23.04296875L150.46112060546875,34.689453125C150.391357421875,35.1142578125,150.57080078125,35.54248046875,150.92349243164062,35.7900390625C151.11700439453125,35.9267578125,151.34368896484375,35.99609375,151.5709228515625,35.99609375C151.7576904296875,35.99609375,151.945556640625,35.94873046875,152.11541748046875,35.85546875L161.99969482421875,30.388671875L171.88394165039062,35.85546875C172.05380249023438,35.94873046875,172.24169921875,35.99609375,172.42843627929688,35.99609375C172.65570068359375,35.99609375,172.8829345703125,35.9267578125,173.07586669921875,35.7900390625C173.42855834960938,35.54248046875,173.60800170898438,35.1142578125,173.53823852539062,34.689453125L171.63812255859375,23.04296875L179.67849731445312,14.798828125C179.97381591796875,14.49609375,180.07504272460938,14.0556640625,179.94119262695312,13.65625Z" style="fill: rgb(204, 164, 61);"></path></g></g></g><g id="shape-8211c007-6354-8069-8006-f69e1b5ab20b" width="800" height="800" xml:space="preserve" rx="0" ry="0" style="fill: rgb(0, 0, 0);"><g id="shape-8211c007-6354-8069-8006-f69e1b5ab214" style="display: none;"><g class="fills" id="fills-8211c007-6354-8069-8006-f69e1b5ab214"><rect width="36" height="36" x="192.00173259947496" transform="matrix(1.000000, 0.000000, 0.000000, 1.000000, 0.000000, 0.000000)" style="fill: none;" ry="0" fill="none" rx="0" y="0"></rect></g></g><g id="shape-8211c007-6354-8069-8006-f69e1b5ab215"><g class="fills" id="fills-8211c007-6354-8069-8006-f69e1b5ab215"><path d="M227.94155883789062,13.65625C227.80767822265625,13.255859375,227.461181640625,12.96435546875,227.04437255859375,12.900390625L215.97772216796875,11.20947265625L211.019287109375,0.646484375C210.83367919921875,0.251953125,210.43655395507812,0,210.0006103515625,0C209.56466674804688,0,209.16812133789062,0.251953125,208.98193359375,0.646484375L204.02349853515625,11.20947265625L192.95687866210938,12.90087890625C192.5400390625,12.96435546875,192.194091796875,13.25634765625,192.05966186523438,13.65625C191.92581176757812,14.0556640625,192.0264892578125,14.4970703125,192.32122802734375,14.798828125L200.36160278320312,23.04296875L198.46148681640625,34.689453125C198.3917236328125,35.1142578125,198.5711669921875,35.54248046875,198.92385864257812,35.7900390625C199.11737060546875,35.9267578125,199.34405517578125,35.99609375,199.5712890625,35.99609375C199.758056640625,35.99609375,199.9459228515625,35.94873046875,200.11578369140625,35.85546875L210.00006103515625,30.388671875L219.88430786132812,35.85546875C220.05416870117188,35.94873046875,220.2420654296875,35.99609375,220.42880249023438,35.99609375C220.65606689453125,35.99609375,220.88330078125,35.9267578125,221.07623291015625,35.7900390625C221.42892456054688,35.54248046875,221.60836791992188,35.1142578125,221.53860473632812,34.689453125L219.63848876953125,23.04296875L227.67886352539062,14.798828125C227.97418212890625,14.49609375,228.07540893554688,14.0556640625,227.94155883789062,13.65625Z" style="fill: rgb(204, 164, 61);"></path></g></g></g></g></g></g></g></g></g></svg>