<svg xmlns="http://www.w3.org/2000/svg" xmlns:xlink="http://www.w3.org/1999/xlink" width="110" height="86" id="screenshot-8211c007-6354-8069-8006-f69dfd75c202" viewBox="0 0 110 86" fill="none"><g id="shape-8211c007-6354-8069-8006-f69dfd75c202" width="800" height="800" rx="0" ry="0" style="fill: rgb(0, 0, 0);"><g id="shape-8211c007-6354-8069-8006-f69dfd75c203"><g class="fills" id="fills-8211c007-6354-8069-8006-f69dfd75c203"><path d="M100.2337646484375,7.4130859375C106.58856201171875,14.292236328125,110,22.0078125,110,34.514404296875C110,56.5224609375,94.8416748046875,76.247314453125,72.79852294921875,86L67.28936767578125,77.33544921875C87.8641357421875,65.99267578125,91.886474609375,51.271728515625,93.49053955078125,41.99072265625C90.177734375,43.7392578125,85.84075927734375,44.3486328125,81.59027099609375,43.9462890625C70.4609375,42.89599609375,61.687255859375,33.584228515625,61.687255859375,22.0078125C61.687255859375,9.852783203125,71.35546875,0,83.28009033203125,0C89.89984130859375,0,96.2303466796875,3.080810546875,100.2337646484375,7.4130859375ZM38.5400390625,7.4130859375C44.89459228515625,14.292236328125,48.30633544921875,22.0078125,48.30633544921875,34.514404296875C48.30633544921875,56.5224609375,33.14788818359375,76.247314453125,11.104736328125,86L5.5958251953125,77.33544921875C26.17041015625,65.99267578125,30.1927490234375,51.271728515625,31.79681396484375,41.99072265625C28.4840087890625,43.7392578125,24.1468505859375,44.3486328125,19.8963623046875,43.9462890625C8.76702880859375,42.89599609375,-0.00048828125,33.584228515625,-0.00048828125,22.0078125C-0.00048828125,9.852783203125,9.667724609375,0,21.59228515625,0C28.2120361328125,0,34.5426025390625,3.080810546875,38.54620361328125,7.4130859375Z" style="fill: rgb(248, 246, 240); fill-opacity: 1;"></path></g></g></g></svg>